<svg width="1024" height="753" viewBox="0 0 1024 753" fill="none" xmlns="http://www.w3.org/2000/svg">
<g clip-path="url(#clip0_175_1867)">
<rect width="1024" height="753" fill="#121214"/>
<g opacity="0.2" filter="url(#filter0_f_175_1867)">
<ellipse cx="512.5" cy="69.0086" rx="670.5" ry="374.009" fill="#35875D"/>
</g>
<path d="M33.0349 321.197C34.5302 321.197 35.6622 321.871 36.4308 323.218C37.2134 324.551 37.6047 326.49 37.6047 329.037C37.6047 331.583 37.2134 333.53 36.4308 334.877C35.6622 336.224 34.5302 336.898 33.0349 336.898C31.5536 336.898 30.4216 336.224 29.639 334.877C28.8564 333.53 28.4651 331.583 28.4651 329.037C28.4651 326.505 28.8564 324.565 29.639 323.218C30.4216 321.871 31.5536 321.197 33.0349 321.197ZM29.9534 329.037C29.9534 330.843 30.1072 332.257 30.4146 333.278L35.0683 323.44C34.5791 322.744 33.9013 322.396 33.0349 322.396C32.0706 322.396 31.316 322.944 30.771 324.04C30.2259 325.121 29.9534 326.786 29.9534 329.037ZM33.0349 335.677C34.0131 335.677 34.7748 335.136 35.3198 334.055C35.8648 332.96 36.1373 331.287 36.1373 329.037C36.1373 327.127 35.9627 325.646 35.6133 324.595L30.9596 334.522C31.4627 335.292 32.1545 335.677 33.0349 335.677Z" fill="url(#paint0_linear_175_1867)" fill-opacity="0.6"/>
<path d="M34.2926 360.879H37.3741V362.056H29.3874V360.879H32.9511V348.399L29.5551 350.553L28.9682 349.553L33.1607 346.8H34.2926V360.879Z" fill="url(#paint1_linear_175_1867)" fill-opacity="0.6"/>
<path d="M33.0349 371.958C34.5302 371.958 35.6622 372.631 36.4308 373.979C37.2134 375.311 37.6047 377.251 37.6047 379.797C37.6047 382.344 37.2134 384.29 36.4308 385.638C35.6622 386.985 34.5302 387.659 33.0349 387.659C31.5536 387.659 30.4216 386.985 29.639 385.638C28.8564 384.29 28.4651 382.344 28.4651 379.797C28.4651 377.265 28.8564 375.326 29.639 373.979C30.4216 372.631 31.5536 371.958 33.0349 371.958ZM29.9534 379.797C29.9534 381.603 30.1072 383.017 30.4146 384.039L35.0683 374.201C34.5791 373.505 33.9013 373.157 33.0349 373.157C32.0706 373.157 31.316 373.705 30.771 374.8C30.2259 375.881 29.9534 377.547 29.9534 379.797ZM33.0349 386.437C34.0131 386.437 34.7748 385.897 35.3198 384.816C35.8648 383.72 36.1373 382.047 36.1373 379.797C36.1373 377.887 35.9627 376.407 35.6133 375.356L30.9596 385.282C31.4627 386.052 32.1545 386.437 33.0349 386.437Z" fill="url(#paint2_linear_175_1867)" fill-opacity="0.6"/>
<path d="M34.2926 411.64H37.3741V412.817H29.3874V411.64H32.9511V399.159L29.5551 401.313L28.9682 400.314L33.1607 397.56H34.2926V411.64Z" fill="url(#paint3_linear_175_1867)" fill-opacity="0.6"/>
<path d="M34.2926 437.02H37.3741V438.197H29.3874V437.02H32.9511V424.539L29.5551 426.694L28.9682 425.694L33.1607 422.94H34.2926V437.02Z" fill="url(#paint4_linear_175_1867)" fill-opacity="0.6"/>
<path d="M33.0349 448.099C34.5302 448.099 35.6622 448.772 36.4308 450.12C37.2134 451.452 37.6047 453.391 37.6047 455.938C37.6047 458.484 37.2134 460.431 36.4308 461.779C35.6622 463.126 34.5302 463.8 33.0349 463.8C31.5536 463.8 30.4216 463.126 29.639 461.779C28.8564 460.431 28.4651 458.484 28.4651 455.938C28.4651 453.406 28.8564 451.467 29.639 450.12C30.4216 448.772 31.5536 448.099 33.0349 448.099ZM29.9534 455.938C29.9534 457.744 30.1072 459.158 30.4146 460.18L35.0683 450.342C34.5791 449.646 33.9013 449.298 33.0349 449.298C32.0706 449.298 31.316 449.846 30.771 450.941C30.2259 452.022 29.9534 453.688 29.9534 455.938ZM33.0349 462.578C34.0131 462.578 34.7748 462.038 35.3198 460.957C35.8648 459.861 36.1373 458.188 36.1373 455.938C36.1373 454.028 35.9627 452.548 35.6133 451.496L30.9596 461.423C31.4627 462.193 32.1545 462.578 33.0349 462.578Z" fill="url(#paint5_linear_175_1867)" fill-opacity="0.6"/>
<path d="M34.2926 487.781H37.3741V488.958H29.3874V487.781H32.9511V475.3L29.5551 477.454L28.9682 476.455L33.1607 473.701H34.2926V487.781Z" fill="url(#paint6_linear_175_1867)" fill-opacity="0.6"/>
<path d="M33.0349 498.859C34.5302 498.859 35.6622 499.533 36.4308 500.88C37.2134 502.213 37.6047 504.152 37.6047 506.699C37.6047 509.245 37.2134 511.192 36.4308 512.539C35.6622 513.886 34.5302 514.56 33.0349 514.56C31.5536 514.56 30.4216 513.886 29.639 512.539C28.8564 511.192 28.4651 509.245 28.4651 506.699C28.4651 504.167 28.8564 502.227 29.639 500.88C30.4216 499.533 31.5536 498.859 33.0349 498.859ZM29.9534 506.699C29.9534 508.505 30.1072 509.919 30.4146 510.94L35.0683 501.102C34.5791 500.406 33.9013 500.058 33.0349 500.058C32.0706 500.058 31.316 500.606 30.771 501.702C30.2259 502.783 29.9534 504.448 29.9534 506.699ZM33.0349 513.339C34.0131 513.339 34.7748 512.798 35.3198 511.718C35.8648 510.622 36.1373 508.949 36.1373 506.699C36.1373 504.789 35.9627 503.308 35.6133 502.257L30.9596 512.184C31.4627 512.954 32.1545 513.339 33.0349 513.339Z" fill="url(#paint7_linear_175_1867)" fill-opacity="0.6"/>
<path d="M33.0349 524.239C34.5302 524.239 35.6622 524.913 36.4308 526.26C37.2134 527.593 37.6047 529.532 37.6047 532.079C37.6047 534.625 37.2134 536.572 36.4308 537.919C35.6622 539.267 34.5302 539.94 33.0349 539.94C31.5536 539.94 30.4216 539.267 29.639 537.919C28.8564 536.572 28.4651 534.625 28.4651 532.079C28.4651 529.547 28.8564 527.608 29.639 526.26C30.4216 524.913 31.5536 524.239 33.0349 524.239ZM29.9534 532.079C29.9534 533.885 30.1072 535.299 30.4146 536.32L35.0683 526.482C34.5791 525.787 33.9013 525.439 33.0349 525.439C32.0706 525.439 31.316 525.987 30.771 527.082C30.2259 528.163 29.9534 529.828 29.9534 532.079ZM33.0349 538.719C34.0131 538.719 34.7748 538.179 35.3198 537.098C35.8648 536.002 36.1373 534.329 36.1373 532.079C36.1373 530.169 35.9627 528.688 35.6133 527.637L30.9596 537.564C31.4627 538.334 32.1545 538.719 33.0349 538.719Z" fill="url(#paint8_linear_175_1867)" fill-opacity="0.6"/>
<path d="M34.2926 563.922H37.3741V565.099H29.3874V563.922H32.9511V551.441L29.5551 553.595L28.9682 552.596L33.1607 549.842H34.2926V563.922Z" fill="url(#paint9_linear_175_1867)" fill-opacity="0.6"/>
<path d="M33.0349 575C34.5302 575 35.6622 575.674 36.4308 577.021C37.2134 578.353 37.6047 580.293 37.6047 582.839C37.6047 585.386 37.2134 587.333 36.4308 588.68C35.6622 590.027 34.5302 590.701 33.0349 590.701C31.5536 590.701 30.4216 590.027 29.639 588.68C28.8564 587.333 28.4651 585.386 28.4651 582.839C28.4651 580.308 28.8564 578.368 29.639 577.021C30.4216 575.674 31.5536 575 33.0349 575ZM29.9534 582.839C29.9534 584.646 30.1072 586.06 30.4146 587.081L35.0683 577.243C34.5791 576.547 33.9013 576.199 33.0349 576.199C32.0706 576.199 31.316 576.747 30.771 577.843C30.2259 578.923 29.9534 580.589 29.9534 582.839ZM33.0349 589.48C34.0131 589.48 34.7748 588.939 35.3198 587.858C35.8648 586.763 36.1373 585.09 36.1373 582.839C36.1373 580.93 35.9627 579.449 35.6133 578.398L30.9596 588.325C31.4627 589.095 32.1545 589.48 33.0349 589.48Z" fill="url(#paint10_linear_175_1867)" fill-opacity="0.6"/>
<path d="M34.2926 614.682H37.3741V615.859H29.3874V614.682H32.9511V602.201L29.5551 604.356L28.9682 603.356L33.1607 600.602H34.2926V614.682Z" fill="url(#paint11_linear_175_1867)" fill-opacity="0.6"/>
<path d="M34.2926 640.062H37.3741V641.239H29.3874V640.062H32.9511V627.582L29.5551 629.736L28.9682 628.736L33.1607 625.983H34.2926V640.062Z" fill="url(#paint12_linear_175_1867)" fill-opacity="0.6"/>
<path d="M71.9651 371.958C73.4604 371.958 74.5924 372.631 75.361 373.979C76.1436 375.311 76.5349 377.251 76.5349 379.797C76.5349 382.344 76.1436 384.29 75.361 385.638C74.5924 386.985 73.4604 387.659 71.9651 387.659C70.4838 387.659 69.3518 386.985 68.5692 385.638C67.7866 384.29 67.3953 382.344 67.3953 379.797C67.3953 377.265 67.7866 375.326 68.5692 373.979C69.3518 372.631 70.4838 371.958 71.9651 371.958ZM68.8836 379.797C68.8836 381.603 69.0374 383.017 69.3448 384.039L73.9985 374.201C73.5093 373.505 72.8315 373.157 71.9651 373.157C71.0008 373.157 70.2462 373.705 69.7012 374.8C69.1561 375.881 68.8836 377.547 68.8836 379.797ZM71.9651 386.437C72.9433 386.437 73.705 385.897 74.25 384.816C74.795 383.72 75.0675 382.047 75.0675 379.797C75.0675 377.887 74.8928 376.407 74.5435 375.356L69.8898 385.282C70.3929 386.052 71.0847 386.437 71.9651 386.437Z" fill="url(#paint13_linear_175_1867)" fill-opacity="0.6"/>
<path d="M73.2228 411.64H76.3043V412.817H68.3176V411.64H71.8812V399.159L68.4853 401.313L67.8984 400.314L72.0909 397.56H73.2228V411.64Z" fill="url(#paint14_linear_175_1867)" fill-opacity="0.6"/>
<path d="M71.9651 422.718C73.4604 422.718 74.5924 423.392 75.361 424.739C76.1436 426.072 76.5349 428.011 76.5349 430.558C76.5349 433.104 76.1436 435.051 75.361 436.398C74.5924 437.746 73.4604 438.419 71.9651 438.419C70.4838 438.419 69.3518 437.746 68.5692 436.398C67.7866 435.051 67.3953 433.104 67.3953 430.558C67.3953 428.026 67.7866 426.087 68.5692 424.739C69.3518 423.392 70.4838 422.718 71.9651 422.718ZM68.8836 430.558C68.8836 432.364 69.0374 433.778 69.3448 434.799L73.9985 424.961C73.5093 424.265 72.8315 423.918 71.9651 423.918C71.0008 423.918 70.2462 424.465 69.7012 425.561C69.1561 426.642 68.8836 428.307 68.8836 430.558ZM71.9651 437.198C72.9433 437.198 73.705 436.657 74.25 435.577C74.795 434.481 75.0675 432.808 75.0675 430.558C75.0675 428.648 74.8928 427.167 74.5435 426.116L69.8898 436.043C70.3929 436.813 71.0847 437.198 71.9651 437.198Z" fill="url(#paint15_linear_175_1867)" fill-opacity="0.6"/>
<path d="M71.9651 448.099C73.4604 448.099 74.5924 448.772 75.361 450.12C76.1436 451.452 76.5349 453.391 76.5349 455.938C76.5349 458.484 76.1436 460.431 75.361 461.779C74.5924 463.126 73.4604 463.8 71.9651 463.8C70.4838 463.8 69.3518 463.126 68.5692 461.779C67.7866 460.431 67.3953 458.484 67.3953 455.938C67.3953 453.406 67.7866 451.467 68.5692 450.12C69.3518 448.772 70.4838 448.099 71.9651 448.099ZM68.8836 455.938C68.8836 457.744 69.0374 459.158 69.3448 460.18L73.9985 450.342C73.5093 449.646 72.8315 449.298 71.9651 449.298C71.0008 449.298 70.2462 449.846 69.7012 450.941C69.1561 452.022 68.8836 453.688 68.8836 455.938ZM71.9651 462.578C72.9433 462.578 73.705 462.038 74.25 460.957C74.795 459.861 75.0675 458.188 75.0675 455.938C75.0675 454.028 74.8928 452.548 74.5435 451.496L69.8898 461.423C70.3929 462.193 71.0847 462.578 71.9651 462.578Z" fill="url(#paint16_linear_175_1867)" fill-opacity="0.6"/>
<path d="M73.2228 487.781H76.3043V488.958H68.3176V487.781H71.8812V475.3L68.4853 477.454L67.8984 476.455L72.0909 473.701H73.2228V487.781Z" fill="url(#paint17_linear_175_1867)" fill-opacity="0.6"/>
<path d="M71.9651 498.859C73.4604 498.859 74.5924 499.533 75.361 500.88C76.1436 502.213 76.5349 504.152 76.5349 506.699C76.5349 509.245 76.1436 511.192 75.361 512.539C74.5924 513.886 73.4604 514.56 71.9651 514.56C70.4838 514.56 69.3518 513.886 68.5692 512.539C67.7866 511.192 67.3953 509.245 67.3953 506.699C67.3953 504.167 67.7866 502.227 68.5692 500.88C69.3518 499.533 70.4838 498.859 71.9651 498.859ZM68.8836 506.699C68.8836 508.505 69.0374 509.919 69.3448 510.94L73.9985 501.102C73.5093 500.406 72.8315 500.058 71.9651 500.058C71.0008 500.058 70.2462 500.606 69.7012 501.702C69.1561 502.783 68.8836 504.448 68.8836 506.699ZM71.9651 513.339C72.9433 513.339 73.705 512.798 74.25 511.718C74.795 510.622 75.0675 508.949 75.0675 506.699C75.0675 504.789 74.8928 503.308 74.5435 502.257L69.8898 512.184C70.3929 512.954 71.0847 513.339 71.9651 513.339Z" fill="url(#paint18_linear_175_1867)" fill-opacity="0.6"/>
<path d="M73.2228 538.541H76.3043V539.718H68.3176V538.541H71.8812V526.061L68.4853 528.215L67.8984 527.215L72.0909 524.462H73.2228V538.541Z" fill="url(#paint19_linear_175_1867)" fill-opacity="0.6"/>
<path d="M71.9651 549.62C73.4604 549.62 74.5924 550.293 75.361 551.641C76.1436 552.973 76.5349 554.913 76.5349 557.459C76.5349 560.006 76.1436 561.952 75.361 563.3C74.5924 564.647 73.4604 565.321 71.9651 565.321C70.4838 565.321 69.3518 564.647 68.5692 563.3C67.7866 561.952 67.3953 560.006 67.3953 557.459C67.3953 554.927 67.7866 552.988 68.5692 551.641C69.3518 550.293 70.4838 549.62 71.9651 549.62ZM68.8836 557.459C68.8836 559.265 69.0374 560.679 69.3448 561.701L73.9985 551.863C73.5093 551.167 72.8315 550.819 71.9651 550.819C71.0008 550.819 70.2462 551.367 69.7012 552.462C69.1561 553.543 68.8836 555.209 68.8836 557.459ZM71.9651 564.099C72.9433 564.099 73.705 563.559 74.25 562.478C74.795 561.382 75.0675 559.709 75.0675 557.459C75.0675 555.549 74.8928 554.069 74.5435 553.018L69.8898 562.944C70.3929 563.714 71.0847 564.099 71.9651 564.099Z" fill="url(#paint20_linear_175_1867)" fill-opacity="0.6"/>
<path d="M71.9651 575C73.4604 575 74.5924 575.674 75.361 577.021C76.1436 578.353 76.5349 580.293 76.5349 582.839C76.5349 585.386 76.1436 587.333 75.361 588.68C74.5924 590.027 73.4604 590.701 71.9651 590.701C70.4838 590.701 69.3518 590.027 68.5692 588.68C67.7866 587.333 67.3953 585.386 67.3953 582.839C67.3953 580.308 67.7866 578.368 68.5692 577.021C69.3518 575.674 70.4838 575 71.9651 575ZM68.8836 582.839C68.8836 584.646 69.0374 586.06 69.3448 587.081L73.9985 577.243C73.5093 576.547 72.8315 576.199 71.9651 576.199C71.0008 576.199 70.2462 576.747 69.7012 577.843C69.1561 578.923 68.8836 580.589 68.8836 582.839ZM71.9651 589.48C72.9433 589.48 73.705 588.939 74.25 587.858C74.795 586.763 75.0675 585.09 75.0675 582.839C75.0675 580.93 74.8928 579.449 74.5435 578.398L69.8898 588.325C70.3929 589.095 71.0847 589.48 71.9651 589.48Z" fill="url(#paint21_linear_175_1867)" fill-opacity="0.6"/>
<path d="M73.2228 614.682H76.3043V615.859H68.3176V614.682H71.8812V602.201L68.4853 604.356L67.8984 603.356L72.0909 600.602H73.2228V614.682Z" fill="url(#paint22_linear_175_1867)" fill-opacity="0.6"/>
<path d="M71.9651 625.761C73.4604 625.761 74.5924 626.434 75.361 627.782C76.1436 629.114 76.5349 631.053 76.5349 633.6C76.5349 636.146 76.1436 638.093 75.361 639.441C74.5924 640.788 73.4604 641.461 71.9651 641.461C70.4838 641.461 69.3518 640.788 68.5692 639.441C67.7866 638.093 67.3953 636.146 67.3953 633.6C67.3953 631.068 67.7866 629.129 68.5692 627.782C69.3518 626.434 70.4838 625.761 71.9651 625.761ZM68.8836 633.6C68.8836 635.406 69.0374 636.82 69.3448 637.842L73.9985 628.004C73.5093 627.308 72.8315 626.96 71.9651 626.96C71.0008 626.96 70.2462 627.508 69.7012 628.603C69.1561 629.684 68.8836 631.35 68.8836 633.6ZM71.9651 640.24C72.9433 640.24 73.705 639.7 74.25 638.619C74.795 637.523 75.0675 635.85 75.0675 633.6C75.0675 631.69 74.8928 630.21 74.5435 629.158L69.8898 639.085C70.3929 639.855 71.0847 640.24 71.9651 640.24Z" fill="url(#paint23_linear_175_1867)" fill-opacity="0.6"/>
<path d="M73.2228 665.443H76.3043V666.62H68.3176V665.443H71.8812V652.962L68.4853 655.116L67.8984 654.117L72.0909 651.363H73.2228V665.443Z" fill="url(#paint24_linear_175_1867)" fill-opacity="0.6"/>
<path d="M73.2228 690.823H76.3043V692H68.3176V690.823H71.8812V678.342L68.4853 680.496L67.8984 679.497L72.0909 676.743H73.2228V690.823Z" fill="url(#paint25_linear_175_1867)" fill-opacity="0.6"/>
<path d="M13.5698 397.338C15.0651 397.338 16.1971 398.012 16.9657 399.359C17.7483 400.691 18.1396 402.631 18.1396 405.177C18.1396 407.724 17.7483 409.671 16.9657 411.018C16.1971 412.365 15.0651 413.039 13.5698 413.039C12.0885 413.039 10.9565 412.365 10.1739 411.018C9.3913 409.671 9 407.724 9 405.177C9 402.646 9.3913 400.706 10.1739 399.359C10.9565 398.012 12.0885 397.338 13.5698 397.338ZM10.4883 405.177C10.4883 406.984 10.6421 408.398 10.9495 409.419L15.6032 399.581C15.114 398.885 14.4363 398.537 13.5698 398.537C12.6055 398.537 11.8509 399.085 11.3059 400.181C10.7608 401.261 10.4883 402.927 10.4883 405.177ZM13.5698 411.818C14.5481 411.818 15.3097 411.277 15.8547 410.196C16.3997 409.101 16.6722 407.428 16.6722 405.177C16.6722 403.268 16.4976 401.787 16.1482 400.736L11.4945 410.663C11.9976 411.433 12.6894 411.818 13.5698 411.818Z" fill="url(#paint26_linear_175_1867)" fill-opacity="0.6"/>
<path d="M13.5698 422.718C15.0651 422.718 16.1971 423.392 16.9657 424.739C17.7483 426.072 18.1396 428.011 18.1396 430.558C18.1396 433.104 17.7483 435.051 16.9657 436.398C16.1971 437.746 15.0651 438.419 13.5698 438.419C12.0885 438.419 10.9565 437.746 10.1739 436.398C9.3913 435.051 9 433.104 9 430.558C9 428.026 9.3913 426.087 10.1739 424.739C10.9565 423.392 12.0885 422.718 13.5698 422.718ZM10.4883 430.558C10.4883 432.364 10.6421 433.778 10.9495 434.799L15.6032 424.961C15.114 424.265 14.4363 423.918 13.5698 423.918C12.6055 423.918 11.8509 424.465 11.3059 425.561C10.7608 426.642 10.4883 428.307 10.4883 430.558ZM13.5698 437.198C14.5481 437.198 15.3097 436.657 15.8547 435.577C16.3997 434.481 16.6722 432.808 16.6722 430.558C16.6722 428.648 16.4976 427.167 16.1482 426.116L11.4945 436.043C11.9976 436.813 12.6894 437.198 13.5698 437.198Z" fill="url(#paint27_linear_175_1867)" fill-opacity="0.6"/>
<path d="M14.8276 462.4H17.909V463.577H9.92235V462.4H13.486V449.92L10.09 452.074L9.5031 451.074L13.6956 448.321H14.8276V462.4Z" fill="url(#paint28_linear_175_1867)" fill-opacity="0.6"/>
<path d="M13.5698 473.479C15.0651 473.479 16.1971 474.153 16.9657 475.5C17.7483 476.832 18.1396 478.772 18.1396 481.318C18.1396 483.865 17.7483 485.812 16.9657 487.159C16.1971 488.506 15.0651 489.18 13.5698 489.18C12.0885 489.18 10.9565 488.506 10.1739 487.159C9.3913 485.812 9 483.865 9 481.318C9 478.787 9.3913 476.847 10.1739 475.5C10.9565 474.153 12.0885 473.479 13.5698 473.479ZM10.4883 481.318C10.4883 483.124 10.6421 484.538 10.9495 485.56L15.6032 475.722C15.114 475.026 14.4363 474.678 13.5698 474.678C12.6055 474.678 11.8509 475.226 11.3059 476.322C10.7608 477.402 10.4883 479.068 10.4883 481.318ZM13.5698 487.958C14.5481 487.958 15.3097 487.418 15.8547 486.337C16.3997 485.242 16.6722 483.569 16.6722 481.318C16.6722 479.408 16.4976 477.928 16.1482 476.877L11.4945 486.804C11.9976 487.573 12.6894 487.958 13.5698 487.958Z" fill="url(#paint29_linear_175_1867)" fill-opacity="0.6"/>
<path d="M14.8276 513.161H17.909V514.338H9.92235V513.161H13.486V500.68L10.09 502.834L9.5031 501.835L13.6956 499.081H14.8276V513.161Z" fill="url(#paint30_linear_175_1867)" fill-opacity="0.6"/>
<path d="M14.8276 538.541H17.909V539.718H9.92235V538.541H13.486V526.061L10.09 528.215L9.5031 527.215L13.6956 524.462H14.8276V538.541Z" fill="url(#paint31_linear_175_1867)" fill-opacity="0.6"/>
<path d="M53.7577 360.879H56.8392V362.056H48.8525V360.879H52.4162V348.399L49.0202 350.553L48.4333 349.553L52.6258 346.8H53.7577V360.879Z" fill="url(#paint32_linear_175_1867)" fill-opacity="0.6"/>
<path d="M52.5 371.958C53.9953 371.958 55.1273 372.631 55.8959 373.979C56.6785 375.311 57.0698 377.251 57.0698 379.797C57.0698 382.344 56.6785 384.29 55.8959 385.638C55.1273 386.985 53.9953 387.659 52.5 387.659C51.0187 387.659 49.8867 386.985 49.1041 385.638C48.3215 384.29 47.9302 382.344 47.9302 379.797C47.9302 377.265 48.3215 375.326 49.1041 373.979C49.8867 372.631 51.0187 371.958 52.5 371.958ZM49.4185 379.797C49.4185 381.603 49.5723 383.017 49.8797 384.039L54.5334 374.201C54.0442 373.505 53.3664 373.157 52.5 373.157C51.5357 373.157 50.7811 373.705 50.2361 374.8C49.691 375.881 49.4185 377.547 49.4185 379.797ZM52.5 386.437C53.4782 386.437 54.2399 385.897 54.7849 384.816C55.3299 383.72 55.6024 382.047 55.6024 379.797C55.6024 377.887 55.4277 376.407 55.0784 375.356L50.4247 385.282C50.9278 386.052 51.6196 386.437 52.5 386.437Z" fill="url(#paint33_linear_175_1867)" fill-opacity="0.6"/>
<path d="M53.7577 411.64H56.8392V412.817H48.8525V411.64H52.4162V399.159L49.0202 401.313L48.4333 400.314L52.6258 397.56H53.7577V411.64Z" fill="url(#paint34_linear_175_1867)" fill-opacity="0.6"/>
<path d="M53.7577 437.02H56.8392V438.197H48.8525V437.02H52.4162V424.539L49.0202 426.694L48.4333 425.694L52.6258 422.94H53.7577V437.02Z" fill="url(#paint35_linear_175_1867)" fill-opacity="0.6"/>
<path d="M52.5 448.099C53.9953 448.099 55.1273 448.772 55.8959 450.12C56.6785 451.452 57.0698 453.391 57.0698 455.938C57.0698 458.484 56.6785 460.431 55.8959 461.779C55.1273 463.126 53.9953 463.8 52.5 463.8C51.0187 463.8 49.8867 463.126 49.1041 461.779C48.3215 460.431 47.9302 458.484 47.9302 455.938C47.9302 453.406 48.3215 451.467 49.1041 450.12C49.8867 448.772 51.0187 448.099 52.5 448.099ZM49.4185 455.938C49.4185 457.744 49.5723 459.158 49.8797 460.18L54.5334 450.342C54.0442 449.646 53.3664 449.298 52.5 449.298C51.5357 449.298 50.7811 449.846 50.2361 450.941C49.691 452.022 49.4185 453.688 49.4185 455.938ZM52.5 462.578C53.4782 462.578 54.2399 462.038 54.7849 460.957C55.3299 459.861 55.6024 458.188 55.6024 455.938C55.6024 454.028 55.4277 452.548 55.0784 451.496L50.4247 461.423C50.9278 462.193 51.6196 462.578 52.5 462.578Z" fill="url(#paint36_linear_175_1867)" fill-opacity="0.6"/>
<path d="M53.7577 487.781H56.8392V488.958H48.8525V487.781H52.4162V475.3L49.0202 477.454L48.4333 476.455L52.6258 473.701H53.7577V487.781Z" fill="url(#paint37_linear_175_1867)" fill-opacity="0.6"/>
<path d="M53.7577 513.161H56.8392V514.338H48.8525V513.161H52.4162V500.68L49.0202 502.834L48.4333 501.835L52.6258 499.081H53.7577V513.161Z" fill="url(#paint38_linear_175_1867)" fill-opacity="0.6"/>
<path d="M52.5 524.239C53.9953 524.239 55.1273 524.913 55.8959 526.26C56.6785 527.593 57.0698 529.532 57.0698 532.079C57.0698 534.625 56.6785 536.572 55.8959 537.919C55.1273 539.267 53.9953 539.94 52.5 539.94C51.0187 539.94 49.8867 539.267 49.1041 537.919C48.3215 536.572 47.9302 534.625 47.9302 532.079C47.9302 529.547 48.3215 527.608 49.1041 526.26C49.8867 524.913 51.0187 524.239 52.5 524.239ZM49.4185 532.079C49.4185 533.885 49.5723 535.299 49.8797 536.32L54.5334 526.482C54.0442 525.787 53.3664 525.439 52.5 525.439C51.5357 525.439 50.7811 525.987 50.2361 527.082C49.691 528.163 49.4185 529.828 49.4185 532.079ZM52.5 538.719C53.4782 538.719 54.2399 538.179 54.7849 537.098C55.3299 536.002 55.6024 534.329 55.6024 532.079C55.6024 530.169 55.4277 528.688 55.0784 527.637L50.4247 537.564C50.9278 538.334 51.6196 538.719 52.5 538.719Z" fill="url(#paint39_linear_175_1867)" fill-opacity="0.6"/>
<path d="M53.7577 563.922H56.8392V565.099H48.8525V563.922H52.4162V551.441L49.0202 553.595L48.4333 552.596L52.6258 549.842H53.7577V563.922Z" fill="url(#paint40_linear_175_1867)" fill-opacity="0.6"/>
<path d="M52.5 575C53.9953 575 55.1273 575.674 55.8959 577.021C56.6785 578.353 57.0698 580.293 57.0698 582.839C57.0698 585.386 56.6785 587.333 55.8959 588.68C55.1273 590.027 53.9953 590.701 52.5 590.701C51.0187 590.701 49.8867 590.027 49.1041 588.68C48.3215 587.333 47.9302 585.386 47.9302 582.839C47.9302 580.308 48.3215 578.368 49.1041 577.021C49.8867 575.674 51.0187 575 52.5 575ZM49.4185 582.839C49.4185 584.646 49.5723 586.06 49.8797 587.081L54.5334 577.243C54.0442 576.547 53.3664 576.199 52.5 576.199C51.5357 576.199 50.7811 576.747 50.2361 577.843C49.691 578.923 49.4185 580.589 49.4185 582.839ZM52.5 589.48C53.4782 589.48 54.2399 588.939 54.7849 587.858C55.3299 586.763 55.6024 585.09 55.6024 582.839C55.6024 580.93 55.4277 579.449 55.0784 578.398L50.4247 588.325C50.9278 589.095 51.6196 589.48 52.5 589.48Z" fill="url(#paint41_linear_175_1867)" fill-opacity="0.6"/>
<path d="M91.4302 346.577C92.9255 346.577 94.0575 347.251 94.8261 348.598C95.6087 349.931 96 351.87 96 354.417C96 356.963 95.6087 358.91 94.8261 360.257C94.0575 361.605 92.9255 362.278 91.4302 362.278C89.9489 362.278 88.8169 361.605 88.0343 360.257C87.2517 358.91 86.8604 356.963 86.8604 354.417C86.8604 351.885 87.2517 349.946 88.0343 348.598C88.8169 347.251 89.9489 346.577 91.4302 346.577ZM88.3487 354.417C88.3487 356.223 88.5024 357.637 88.8099 358.659L93.4636 348.82C92.9744 348.125 92.2966 347.777 91.4302 347.777C90.4659 347.777 89.7113 348.324 89.1663 349.42C88.6212 350.501 88.3487 352.166 88.3487 354.417ZM91.4302 361.057C92.4084 361.057 93.1701 360.517 93.7151 359.436C94.2601 358.34 94.5326 356.667 94.5326 354.417C94.5326 352.507 94.3579 351.026 94.0086 349.975L89.3549 359.902C89.858 360.672 90.5498 361.057 91.4302 361.057Z" fill="url(#paint42_linear_175_1867)" fill-opacity="0.6"/>
<path d="M92.6879 386.26H95.7694V387.437H87.7827V386.26H91.3463V373.779L87.9504 375.933L87.3635 374.934L91.556 372.18H92.6879V386.26Z" fill="url(#paint43_linear_175_1867)" fill-opacity="0.6"/>
<path d="M92.6879 411.64H95.7694V412.817H87.7827V411.64H91.3463V399.159L87.9504 401.313L87.3635 400.314L91.556 397.56H92.6879V411.64Z" fill="url(#paint44_linear_175_1867)" fill-opacity="0.6"/>
<path d="M91.4302 422.718C92.9255 422.718 94.0575 423.392 94.8261 424.739C95.6087 426.072 96 428.011 96 430.558C96 433.104 95.6087 435.051 94.8261 436.398C94.0575 437.746 92.9255 438.419 91.4302 438.419C89.9489 438.419 88.8169 437.746 88.0343 436.398C87.2517 435.051 86.8604 433.104 86.8604 430.558C86.8604 428.026 87.2517 426.087 88.0343 424.739C88.8169 423.392 89.9489 422.718 91.4302 422.718ZM88.3487 430.558C88.3487 432.364 88.5024 433.778 88.8099 434.799L93.4636 424.961C92.9744 424.265 92.2966 423.918 91.4302 423.918C90.4659 423.918 89.7113 424.465 89.1663 425.561C88.6212 426.642 88.3487 428.307 88.3487 430.558ZM91.4302 437.198C92.4084 437.198 93.1701 436.657 93.7151 435.577C94.2601 434.481 94.5326 432.808 94.5326 430.558C94.5326 428.648 94.3579 427.167 94.0086 426.116L89.3549 436.043C89.858 436.813 90.5498 437.198 91.4302 437.198Z" fill="url(#paint45_linear_175_1867)" fill-opacity="0.6"/>
<path d="M91.4302 448.099C92.9255 448.099 94.0575 448.772 94.8261 450.12C95.6087 451.452 96 453.391 96 455.938C96 458.484 95.6087 460.431 94.8261 461.779C94.0575 463.126 92.9255 463.8 91.4302 463.8C89.9489 463.8 88.8169 463.126 88.0343 461.779C87.2517 460.431 86.8604 458.484 86.8604 455.938C86.8604 453.406 87.2517 451.467 88.0343 450.12C88.8169 448.772 89.9489 448.099 91.4302 448.099ZM88.3487 455.938C88.3487 457.744 88.5024 459.158 88.8099 460.18L93.4636 450.342C92.9744 449.646 92.2966 449.298 91.4302 449.298C90.4659 449.298 89.7113 449.846 89.1663 450.941C88.6212 452.022 88.3487 453.688 88.3487 455.938ZM91.4302 462.578C92.4084 462.578 93.1701 462.038 93.7151 460.957C94.2601 459.861 94.5326 458.188 94.5326 455.938C94.5326 454.028 94.3579 452.548 94.0086 451.496L89.3549 461.423C89.858 462.193 90.5498 462.578 91.4302 462.578Z" fill="url(#paint46_linear_175_1867)" fill-opacity="0.6"/>
<g opacity="0.6">
<path d="M919.93 0.618408C921.356 0.618408 922.436 1.26487 923.17 2.55778C923.916 3.83648 924.29 5.69771 924.29 8.14146C924.29 10.5852 923.916 12.4535 923.17 13.7465C922.436 15.0394 921.356 15.6858 919.93 15.6858C918.517 15.6858 917.437 15.0394 916.69 13.7465C915.943 12.4535 915.57 10.5852 915.57 8.14146C915.57 5.71192 915.943 3.85069 916.69 2.55778C917.437 1.26487 918.517 0.618408 919.93 0.618408ZM916.99 8.14146C916.99 9.87482 917.137 11.2317 917.43 12.212L921.87 2.7709C921.403 2.10313 920.756 1.76924 919.93 1.76924C919.01 1.76924 918.29 2.29493 917.77 3.34631C917.25 4.38349 916.99 5.98187 916.99 8.14146ZM919.93 14.5137C920.863 14.5137 921.59 13.9951 922.11 12.9579C922.63 11.9065 922.89 10.3011 922.89 8.14146C922.89 6.30865 922.723 4.88786 922.39 3.87911L917.95 13.4055C918.43 14.1443 919.09 14.5137 919.93 14.5137Z" fill="url(#paint47_linear_175_1867)"/>
<path d="M921.13 38.6995H924.07V39.829H916.45V38.6995H919.85V26.7223L916.61 28.7895L916.05 27.8305L920.05 25.1878H921.13V38.6995Z" fill="url(#paint48_linear_175_1867)"/>
<path d="M919.93 49.331C921.356 49.331 922.436 49.9775 923.17 51.2704C923.916 52.5491 924.29 54.4103 924.29 56.8541C924.29 59.2978 923.916 61.1661 923.17 62.459C922.436 63.752 921.356 64.3984 919.93 64.3984C918.517 64.3984 917.437 63.752 916.69 62.459C915.943 61.1661 915.57 59.2978 915.57 56.8541C915.57 54.4245 915.943 52.5633 916.69 51.2704C917.437 49.9775 918.517 49.331 919.93 49.331ZM916.99 56.8541C916.99 58.5874 917.137 59.9443 917.43 60.9246L921.87 51.4835C921.403 50.8157 920.756 50.4818 919.93 50.4818C919.01 50.4818 918.29 51.0075 917.77 52.0589C917.25 53.0961 916.99 54.6945 916.99 56.8541ZM919.93 63.2263C920.863 63.2263 921.59 62.7077 922.11 61.6705C922.63 60.6191 922.89 59.0136 922.89 56.8541C922.89 55.0212 922.723 53.6005 922.39 52.5917L917.95 62.1181C918.43 62.8569 919.09 63.2263 919.93 63.2263Z" fill="url(#paint49_linear_175_1867)"/>
<path d="M921.13 87.4121H924.07V88.5416H916.45V87.4121H919.85V75.4349L916.61 77.5021L916.05 76.5431L920.05 73.9004H921.13V87.4121Z" fill="url(#paint50_linear_175_1867)"/>
<path d="M921.13 111.768H924.07V112.898H916.45V111.768H919.85V99.7912L916.61 101.858L916.05 100.899L920.05 98.2567H921.13V111.768Z" fill="url(#paint51_linear_175_1867)"/>
<path d="M919.93 122.4C921.356 122.4 922.436 123.046 923.17 124.339C923.916 125.618 924.29 127.479 924.29 129.923C924.29 132.367 923.916 134.235 923.17 135.528C922.436 136.821 921.356 137.467 919.93 137.467C918.517 137.467 917.437 136.821 916.69 135.528C915.943 134.235 915.57 132.367 915.57 129.923C915.57 127.493 915.943 125.632 916.69 124.339C917.437 123.046 918.517 122.4 919.93 122.4ZM916.99 129.923C916.99 131.656 917.137 133.013 917.43 133.993L921.87 124.552C921.403 123.885 920.756 123.551 919.93 123.551C919.01 123.551 918.29 124.076 917.77 125.128C917.25 126.165 916.99 127.763 916.99 129.923ZM919.93 136.295C920.863 136.295 921.59 135.777 922.11 134.739C922.63 133.688 922.89 132.083 922.89 129.923C922.89 128.09 922.723 126.669 922.39 125.661L917.95 135.187C918.43 135.926 919.09 136.295 919.93 136.295Z" fill="url(#paint52_linear_175_1867)"/>
<path d="M921.13 160.481H924.07V161.61H916.45V160.481H919.85V148.504L916.61 150.571L916.05 149.612L920.05 146.969H921.13V160.481Z" fill="url(#paint53_linear_175_1867)"/>
<path d="M919.93 171.112C921.356 171.112 922.436 171.759 923.17 173.052C923.916 174.331 924.29 176.192 924.29 178.636C924.29 181.079 923.916 182.948 923.17 184.241C922.436 185.533 921.356 186.18 919.93 186.18C918.517 186.18 917.437 185.533 916.69 184.241C915.943 182.948 915.57 181.079 915.57 178.636C915.57 176.206 915.943 174.345 916.69 173.052C917.437 171.759 918.517 171.112 919.93 171.112ZM916.99 178.636C916.99 180.369 917.137 181.726 917.43 182.706L921.87 173.265C921.403 172.597 920.756 172.263 919.93 172.263C919.01 172.263 918.29 172.789 917.77 173.84C917.25 174.878 916.99 176.476 916.99 178.636ZM919.93 185.008C920.863 185.008 921.59 184.489 922.11 183.452C922.63 182.401 922.89 180.795 922.89 178.636C922.89 176.803 922.723 175.382 922.39 174.373L917.95 183.9C918.43 184.638 919.09 185.008 919.93 185.008Z" fill="url(#paint54_linear_175_1867)"/>
<path d="M919.93 195.469C921.356 195.469 922.436 196.115 923.17 197.408C923.916 198.687 924.29 200.548 924.29 202.992C924.29 205.436 923.916 207.304 923.17 208.597C922.436 209.89 921.356 210.536 919.93 210.536C918.517 210.536 917.437 209.89 916.69 208.597C915.943 207.304 915.57 205.436 915.57 202.992C915.57 200.562 915.943 198.701 916.69 197.408C917.437 196.115 918.517 195.469 919.93 195.469ZM916.99 202.992C916.99 204.725 917.137 206.082 917.43 207.062L921.87 197.621C921.403 196.954 920.756 196.62 919.93 196.62C919.01 196.62 918.29 197.145 917.77 198.197C917.25 199.234 916.99 200.832 916.99 202.992ZM919.93 209.364C920.863 209.364 921.59 208.845 922.11 207.808C922.63 206.757 922.89 205.151 922.89 202.992C922.89 201.159 922.723 199.738 922.39 198.729L917.95 208.256C918.43 208.995 919.09 209.364 919.93 209.364Z" fill="url(#paint55_linear_175_1867)"/>
<path d="M921.13 233.55H924.07V234.679H916.45V233.55H919.85V221.573L916.61 223.64L916.05 222.681L920.05 220.038H921.13V233.55Z" fill="url(#paint56_linear_175_1867)"/>
<path d="M919.93 244.181C921.356 244.181 922.436 244.828 923.17 246.121C923.916 247.399 924.29 249.261 924.29 251.704C924.29 254.148 923.916 256.016 923.17 257.309C922.436 258.602 921.356 259.249 919.93 259.249C918.517 259.249 917.437 258.602 916.69 257.309C915.943 256.016 915.57 254.148 915.57 251.704C915.57 249.275 915.943 247.414 916.69 246.121C917.437 244.828 918.517 244.181 919.93 244.181ZM916.99 251.704C916.99 253.438 917.137 254.795 917.43 255.775L921.87 246.334C921.403 245.666 920.756 245.332 919.93 245.332C919.01 245.332 918.29 245.858 917.77 246.909C917.25 247.946 916.99 249.545 916.99 251.704ZM919.93 258.077C920.863 258.077 921.59 257.558 922.11 256.521C922.63 255.47 922.89 253.864 922.89 251.704C922.89 249.872 922.723 248.451 922.39 247.442L917.95 256.968C918.43 257.707 919.09 258.077 919.93 258.077Z" fill="url(#paint57_linear_175_1867)"/>
<path d="M921.13 282.262H924.07V283.392H916.45V282.262H919.85V270.285L916.61 272.352L916.05 271.393L920.05 268.751H921.13V282.262Z" fill="url(#paint58_linear_175_1867)"/>
<path d="M921.13 306.619H924.07V307.748H916.45V306.619H919.85V294.642L916.61 296.709L916.05 295.75L920.05 293.107H921.13V306.619Z" fill="url(#paint59_linear_175_1867)"/>
<path d="M957.07 49.331C958.497 49.331 959.577 49.9775 960.31 51.2704C961.057 52.5491 961.43 54.4103 961.43 56.8541C961.43 59.2978 961.057 61.1661 960.31 62.459C959.577 63.752 958.497 64.3984 957.07 64.3984C955.657 64.3984 954.577 63.752 953.83 62.459C953.084 61.1661 952.71 59.2978 952.71 56.8541C952.71 54.4245 953.084 52.5633 953.83 51.2704C954.577 49.9775 955.657 49.331 957.07 49.331ZM954.13 56.8541C954.13 58.5874 954.277 59.9443 954.57 60.9246L959.01 51.4835C958.543 50.8157 957.897 50.4818 957.07 50.4818C956.15 50.4818 955.43 51.0075 954.91 52.0589C954.39 53.0961 954.13 54.6945 954.13 56.8541ZM957.07 63.2263C958.003 63.2263 958.73 62.7077 959.25 61.6705C959.77 60.6191 960.03 59.0136 960.03 56.8541C960.03 55.0212 959.863 53.6005 959.53 52.5917L955.09 62.1181C955.57 62.8569 956.23 63.2263 957.07 63.2263Z" fill="url(#paint60_linear_175_1867)"/>
<path d="M958.27 87.4121H961.21V88.5416H953.59V87.4121H956.99V75.4349L953.75 77.5021L953.19 76.5431L957.19 73.9004H958.27V87.4121Z" fill="url(#paint61_linear_175_1867)"/>
<path d="M957.07 98.0436C958.497 98.0436 959.577 98.6901 960.31 99.983C961.057 101.262 961.43 103.123 961.43 105.567C961.43 108.01 961.057 109.879 960.31 111.172C959.577 112.465 958.497 113.111 957.07 113.111C955.657 113.111 954.577 112.465 953.83 111.172C953.084 109.879 952.71 108.01 952.71 105.567C952.71 103.137 953.084 101.276 953.83 99.983C954.577 98.6901 955.657 98.0436 957.07 98.0436ZM954.13 105.567C954.13 107.3 954.277 108.657 954.57 109.637L959.01 100.196C958.543 99.5283 957.897 99.1944 957.07 99.1944C956.15 99.1944 955.43 99.7201 954.91 100.771C954.39 101.809 954.13 103.407 954.13 105.567ZM957.07 111.939C958.003 111.939 958.73 111.42 959.25 110.383C959.77 109.332 960.03 107.726 960.03 105.567C960.03 103.734 959.863 102.313 959.53 101.304L955.09 110.831C955.57 111.569 956.23 111.939 957.07 111.939Z" fill="url(#paint62_linear_175_1867)"/>
<path d="M957.07 122.4C958.497 122.4 959.577 123.046 960.31 124.339C961.057 125.618 961.43 127.479 961.43 129.923C961.43 132.367 961.057 134.235 960.31 135.528C959.577 136.821 958.497 137.467 957.07 137.467C955.657 137.467 954.577 136.821 953.83 135.528C953.084 134.235 952.71 132.367 952.71 129.923C952.71 127.493 953.084 125.632 953.83 124.339C954.577 123.046 955.657 122.4 957.07 122.4ZM954.13 129.923C954.13 131.656 954.277 133.013 954.57 133.993L959.01 124.552C958.543 123.885 957.897 123.551 957.07 123.551C956.15 123.551 955.43 124.076 954.91 125.128C954.39 126.165 954.13 127.763 954.13 129.923ZM957.07 136.295C958.003 136.295 958.73 135.777 959.25 134.739C959.77 133.688 960.03 132.083 960.03 129.923C960.03 128.09 959.863 126.669 959.53 125.661L955.09 135.187C955.57 135.926 956.23 136.295 957.07 136.295Z" fill="url(#paint63_linear_175_1867)"/>
<path d="M958.27 160.481H961.21V161.61H953.59V160.481H956.99V148.504L953.75 150.571L953.19 149.612L957.19 146.969H958.27V160.481Z" fill="url(#paint64_linear_175_1867)"/>
<path d="M957.07 171.112C958.497 171.112 959.577 171.759 960.31 173.052C961.057 174.331 961.43 176.192 961.43 178.636C961.43 181.079 961.057 182.948 960.31 184.241C959.577 185.533 958.497 186.18 957.07 186.18C955.657 186.18 954.577 185.533 953.83 184.241C953.084 182.948 952.71 181.079 952.71 178.636C952.71 176.206 953.084 174.345 953.83 173.052C954.577 171.759 955.657 171.112 957.07 171.112ZM954.13 178.636C954.13 180.369 954.277 181.726 954.57 182.706L959.01 173.265C958.543 172.597 957.897 172.263 957.07 172.263C956.15 172.263 955.43 172.789 954.91 173.84C954.39 174.878 954.13 176.476 954.13 178.636ZM957.07 185.008C958.003 185.008 958.73 184.489 959.25 183.452C959.77 182.401 960.03 180.795 960.03 178.636C960.03 176.803 959.863 175.382 959.53 174.373L955.09 183.9C955.57 184.638 956.23 185.008 957.07 185.008Z" fill="url(#paint65_linear_175_1867)"/>
<path d="M958.27 209.194H961.21V210.323H953.59V209.194H956.99V197.216L953.75 199.284L953.19 198.325L957.19 195.682H958.27V209.194Z" fill="url(#paint66_linear_175_1867)"/>
<path d="M957.07 219.825C958.497 219.825 959.577 220.472 960.31 221.764C961.057 223.043 961.43 224.904 961.43 227.348C961.43 229.792 961.057 231.66 960.31 232.953C959.577 234.246 958.497 234.892 957.07 234.892C955.657 234.892 954.577 234.246 953.83 232.953C953.084 231.66 952.71 229.792 952.71 227.348C952.71 224.919 953.084 223.057 953.83 221.764C954.577 220.472 955.657 219.825 957.07 219.825ZM954.13 227.348C954.13 229.081 954.277 230.438 954.57 231.419L959.01 221.978C958.543 221.31 957.897 220.976 957.07 220.976C956.15 220.976 955.43 221.502 954.91 222.553C954.39 223.59 954.13 225.189 954.13 227.348ZM957.07 233.72C958.003 233.72 958.73 233.202 959.25 232.165C959.77 231.113 960.03 229.508 960.03 227.348C960.03 225.515 959.863 224.095 959.53 223.086L955.09 232.612C955.57 233.351 956.23 233.72 957.07 233.72Z" fill="url(#paint67_linear_175_1867)"/>
<path d="M957.07 244.181C958.497 244.181 959.577 244.828 960.31 246.121C961.057 247.399 961.43 249.261 961.43 251.704C961.43 254.148 961.057 256.016 960.31 257.309C959.577 258.602 958.497 259.249 957.07 259.249C955.657 259.249 954.577 258.602 953.83 257.309C953.084 256.016 952.71 254.148 952.71 251.704C952.71 249.275 953.084 247.414 953.83 246.121C954.577 244.828 955.657 244.181 957.07 244.181ZM954.13 251.704C954.13 253.438 954.277 254.795 954.57 255.775L959.01 246.334C958.543 245.666 957.897 245.332 957.07 245.332C956.15 245.332 955.43 245.858 954.91 246.909C954.39 247.946 954.13 249.545 954.13 251.704ZM957.07 258.077C958.003 258.077 958.73 257.558 959.25 256.521C959.77 255.47 960.03 253.864 960.03 251.704C960.03 249.872 959.863 248.451 959.53 247.442L955.09 256.968C955.57 257.707 956.23 258.077 957.07 258.077Z" fill="url(#paint68_linear_175_1867)"/>
<path d="M958.27 282.262H961.21V283.392H953.59V282.262H956.99V270.285L953.75 272.352L953.19 271.393L957.19 268.751H958.27V282.262Z" fill="url(#paint69_linear_175_1867)"/>
<path d="M957.07 292.894C958.497 292.894 959.577 293.54 960.31 294.833C961.057 296.112 961.43 297.973 961.43 300.417C961.43 302.861 961.057 304.729 960.31 306.022C959.577 307.315 958.497 307.961 957.07 307.961C955.657 307.961 954.577 307.315 953.83 306.022C953.084 304.729 952.71 302.861 952.71 300.417C952.71 297.987 953.084 296.126 953.83 294.833C954.577 293.54 955.657 292.894 957.07 292.894ZM954.13 300.417C954.13 302.15 954.277 303.507 954.57 304.488L959.01 295.046C958.543 294.379 957.897 294.045 957.07 294.045C956.15 294.045 955.43 294.571 954.91 295.622C954.39 296.659 954.13 298.257 954.13 300.417ZM957.07 306.789C958.003 306.789 958.73 306.271 959.25 305.233C959.77 304.182 960.03 302.577 960.03 300.417C960.03 298.584 959.863 297.163 959.53 296.155L955.09 305.681C955.57 306.42 956.23 306.789 957.07 306.789Z" fill="url(#paint70_linear_175_1867)"/>
<path d="M958.27 330.975H961.21V332.105H953.59V330.975H956.99V318.998L953.75 321.065L953.19 320.106L957.19 317.463H958.27V330.975Z" fill="url(#paint71_linear_175_1867)"/>
<path d="M958.27 355.331H961.21V356.461H953.59V355.331H956.99V343.354L953.75 345.421L953.19 344.462L957.19 341.82H958.27V355.331Z" fill="url(#paint72_linear_175_1867)"/>
<path d="M901.36 73.6873C902.786 73.6873 903.866 74.3338 904.599 75.6267C905.346 76.9054 905.719 78.7666 905.719 81.2104C905.719 83.6541 905.346 85.5224 904.599 86.8153C903.866 88.1083 902.786 88.7547 901.36 88.7547C899.946 88.7547 898.867 88.1083 898.12 86.8153C897.373 85.5224 897 83.6541 897 81.2104C897 78.7808 897.373 76.9196 898.12 75.6267C898.867 74.3338 899.946 73.6873 901.36 73.6873ZM898.42 81.2104C898.42 82.9437 898.567 84.3006 898.86 85.2809L903.3 75.8398C902.833 75.172 902.186 74.8381 901.36 74.8381C900.44 74.8381 899.72 75.3638 899.2 76.4152C898.68 77.4524 898.42 79.0508 898.42 81.2104ZM901.36 87.5826C902.293 87.5826 903.02 87.064 903.54 86.0268C904.06 84.9754 904.319 83.3699 904.319 81.2104C904.319 79.3775 904.153 77.9568 903.82 76.948L899.38 86.4744C899.86 87.2132 900.52 87.5826 901.36 87.5826Z" fill="url(#paint73_linear_175_1867)"/>
<path d="M901.36 98.0436C902.786 98.0436 903.866 98.6901 904.599 99.983C905.346 101.262 905.719 103.123 905.719 105.567C905.719 108.01 905.346 109.879 904.599 111.172C903.866 112.465 902.786 113.111 901.36 113.111C899.946 113.111 898.867 112.465 898.12 111.172C897.373 109.879 897 108.01 897 105.567C897 103.137 897.373 101.276 898.12 99.983C898.867 98.6901 899.946 98.0436 901.36 98.0436ZM898.42 105.567C898.42 107.3 898.567 108.657 898.86 109.637L903.3 100.196C902.833 99.5283 902.186 99.1944 901.36 99.1944C900.44 99.1944 899.72 99.7201 899.2 100.771C898.68 101.809 898.42 103.407 898.42 105.567ZM901.36 111.939C902.293 111.939 903.02 111.42 903.54 110.383C904.06 109.332 904.319 107.726 904.319 105.567C904.319 103.734 904.153 102.313 903.82 101.304L899.38 110.831C899.86 111.569 900.52 111.939 901.36 111.939Z" fill="url(#paint74_linear_175_1867)"/>
<path d="M902.56 136.125H905.499V137.254H897.88V136.125H901.28V124.147L898.04 126.215L897.48 125.256L901.48 122.613H902.56V136.125Z" fill="url(#paint75_linear_175_1867)"/>
<path d="M901.36 146.756C902.786 146.756 903.866 147.403 904.599 148.696C905.346 149.974 905.719 151.835 905.719 154.279C905.719 156.723 905.346 158.591 904.599 159.884C903.866 161.177 902.786 161.824 901.36 161.824C899.946 161.824 898.867 161.177 898.12 159.884C897.373 158.591 897 156.723 897 154.279C897 151.85 897.373 149.988 898.12 148.696C898.867 147.403 899.946 146.756 901.36 146.756ZM898.42 154.279C898.42 156.013 898.567 157.369 898.86 158.35L903.3 148.909C902.833 148.241 902.186 147.907 901.36 147.907C900.44 147.907 899.72 148.433 899.2 149.484C898.68 150.521 898.42 152.12 898.42 154.279ZM901.36 160.651C902.293 160.651 903.02 160.133 903.54 159.096C904.06 158.044 904.319 156.439 904.319 154.279C904.319 152.446 904.153 151.026 903.82 150.017L899.38 159.543C899.86 160.282 900.52 160.651 901.36 160.651Z" fill="url(#paint76_linear_175_1867)"/>
<path d="M902.56 184.837H905.499V185.967H897.88V184.837H901.28V172.86L898.04 174.927L897.48 173.968L901.48 171.326H902.56V184.837Z" fill="url(#paint77_linear_175_1867)"/>
<path d="M902.56 209.194H905.499V210.323H897.88V209.194H901.28V197.216L898.04 199.284L897.48 198.325L901.48 195.682H902.56V209.194Z" fill="url(#paint78_linear_175_1867)"/>
<path d="M939.7 38.6995H942.64V39.829H935.02V38.6995H938.42V26.7223L935.18 28.7895L934.62 27.8305L938.62 25.1878H939.7V38.6995Z" fill="url(#paint79_linear_175_1867)"/>
<path d="M938.5 49.331C939.927 49.331 941.006 49.9775 941.74 51.2704C942.486 52.5491 942.86 54.4103 942.86 56.8541C942.86 59.2978 942.486 61.1661 941.74 62.459C941.006 63.752 939.927 64.3984 938.5 64.3984C937.087 64.3984 936.007 63.752 935.26 62.459C934.514 61.1661 934.14 59.2978 934.14 56.8541C934.14 54.4245 934.514 52.5633 935.26 51.2704C936.007 49.9775 937.087 49.331 938.5 49.331ZM935.56 56.8541C935.56 58.5874 935.707 59.9443 936 60.9246L940.44 51.4835C939.973 50.8157 939.327 50.4818 938.5 50.4818C937.58 50.4818 936.86 51.0075 936.34 52.0589C935.82 53.0961 935.56 54.6945 935.56 56.8541ZM938.5 63.2263C939.433 63.2263 940.16 62.7077 940.68 61.6705C941.2 60.6191 941.46 59.0136 941.46 56.8541C941.46 55.0212 941.293 53.6005 940.96 52.5917L936.52 62.1181C937 62.8569 937.66 63.2263 938.5 63.2263Z" fill="url(#paint80_linear_175_1867)"/>
<path d="M939.7 87.4121H942.64V88.5416H935.02V87.4121H938.42V75.4349L935.18 77.5021L934.62 76.5431L938.62 73.9004H939.7V87.4121Z" fill="url(#paint81_linear_175_1867)"/>
<path d="M939.7 111.768H942.64V112.898H935.02V111.768H938.42V99.7912L935.18 101.858L934.62 100.899L938.62 98.2567H939.7V111.768Z" fill="url(#paint82_linear_175_1867)"/>
<path d="M938.5 122.4C939.927 122.4 941.006 123.046 941.74 124.339C942.486 125.618 942.86 127.479 942.86 129.923C942.86 132.367 942.486 134.235 941.74 135.528C941.006 136.821 939.927 137.467 938.5 137.467C937.087 137.467 936.007 136.821 935.26 135.528C934.514 134.235 934.14 132.367 934.14 129.923C934.14 127.493 934.514 125.632 935.26 124.339C936.007 123.046 937.087 122.4 938.5 122.4ZM935.56 129.923C935.56 131.656 935.707 133.013 936 133.993L940.44 124.552C939.973 123.885 939.327 123.551 938.5 123.551C937.58 123.551 936.86 124.076 936.34 125.128C935.82 126.165 935.56 127.763 935.56 129.923ZM938.5 136.295C939.433 136.295 940.16 135.777 940.68 134.739C941.2 133.688 941.46 132.083 941.46 129.923C941.46 128.09 941.293 126.669 940.96 125.661L936.52 135.187C937 135.926 937.66 136.295 938.5 136.295Z" fill="url(#paint83_linear_175_1867)"/>
<path d="M939.7 160.481H942.64V161.61H935.02V160.481H938.42V148.504L935.18 150.571L934.62 149.612L938.62 146.969H939.7V160.481Z" fill="url(#paint84_linear_175_1867)"/>
<path d="M939.7 184.837H942.64V185.967H935.02V184.837H938.42V172.86L935.18 174.927L934.62 173.968L938.62 171.326H939.7V184.837Z" fill="url(#paint85_linear_175_1867)"/>
<path d="M938.5 195.469C939.927 195.469 941.006 196.115 941.74 197.408C942.486 198.687 942.86 200.548 942.86 202.992C942.86 205.436 942.486 207.304 941.74 208.597C941.006 209.89 939.927 210.536 938.5 210.536C937.087 210.536 936.007 209.89 935.26 208.597C934.514 207.304 934.14 205.436 934.14 202.992C934.14 200.562 934.514 198.701 935.26 197.408C936.007 196.115 937.087 195.469 938.5 195.469ZM935.56 202.992C935.56 204.725 935.707 206.082 936 207.062L940.44 197.621C939.973 196.954 939.327 196.62 938.5 196.62C937.58 196.62 936.86 197.145 936.34 198.197C935.82 199.234 935.56 200.832 935.56 202.992ZM938.5 209.364C939.433 209.364 940.16 208.845 940.68 207.808C941.2 206.757 941.46 205.151 941.46 202.992C941.46 201.159 941.293 199.738 940.96 198.729L936.52 208.256C937 208.995 937.66 209.364 938.5 209.364Z" fill="url(#paint86_linear_175_1867)"/>
<path d="M939.7 233.55H942.64V234.679H935.02V233.55H938.42V221.573L935.18 223.64L934.62 222.681L938.62 220.038H939.7V233.55Z" fill="url(#paint87_linear_175_1867)"/>
<path d="M938.5 244.181C939.927 244.181 941.006 244.828 941.74 246.121C942.486 247.399 942.86 249.261 942.86 251.704C942.86 254.148 942.486 256.016 941.74 257.309C941.006 258.602 939.927 259.249 938.5 259.249C937.087 259.249 936.007 258.602 935.26 257.309C934.514 256.016 934.14 254.148 934.14 251.704C934.14 249.275 934.514 247.414 935.26 246.121C936.007 244.828 937.087 244.181 938.5 244.181ZM935.56 251.704C935.56 253.438 935.707 254.795 936 255.775L940.44 246.334C939.973 245.666 939.327 245.332 938.5 245.332C937.58 245.332 936.86 245.858 936.34 246.909C935.82 247.946 935.56 249.545 935.56 251.704ZM938.5 258.077C939.433 258.077 940.16 257.558 940.68 256.521C941.2 255.47 941.46 253.864 941.46 251.704C941.46 249.872 941.293 248.451 940.96 247.442L936.52 256.968C937 257.707 937.66 258.077 938.5 258.077Z" fill="url(#paint88_linear_175_1867)"/>
<path d="M975.64 24.9747C977.067 24.9747 978.147 25.6212 978.88 26.9141C979.627 28.1928 980 30.054 980 32.4978C980 34.9415 979.627 36.8098 978.88 38.1027C978.147 39.3957 977.067 40.0421 975.64 40.0421C974.227 40.0421 973.147 39.3957 972.401 38.1027C971.654 36.8098 971.281 34.9415 971.281 32.4978C971.281 30.0682 971.654 28.207 972.401 26.9141C973.147 25.6212 974.227 24.9747 975.64 24.9747ZM972.7 32.4978C972.7 34.2311 972.847 35.588 973.14 36.5683L977.58 27.1272C977.114 26.4594 976.467 26.1255 975.64 26.1255C974.72 26.1255 974 26.6512 973.48 27.7026C972.96 28.7398 972.7 30.3382 972.7 32.4978ZM975.64 38.87C976.574 38.87 977.3 38.3514 977.82 37.3142C978.34 36.2628 978.6 34.6573 978.6 32.4978C978.6 30.6649 978.433 29.2442 978.1 28.2354L973.66 37.7618C974.14 38.5006 974.8 38.87 975.64 38.87Z" fill="url(#paint89_linear_175_1867)"/>
<path d="M976.84 63.0558H979.78V64.1853H972.161V63.0558H975.56V51.0786L972.321 53.1458L971.761 52.1868L975.76 49.5441H976.84V63.0558Z" fill="url(#paint90_linear_175_1867)"/>
<path d="M976.84 87.4121H979.78V88.5416H972.161V87.4121H975.56V75.4349L972.321 77.5021L971.761 76.5431L975.76 73.9004H976.84V87.4121Z" fill="url(#paint91_linear_175_1867)"/>
<path d="M975.64 98.0436C977.067 98.0436 978.147 98.6901 978.88 99.983C979.627 101.262 980 103.123 980 105.567C980 108.01 979.627 109.879 978.88 111.172C978.147 112.465 977.067 113.111 975.64 113.111C974.227 113.111 973.147 112.465 972.401 111.172C971.654 109.879 971.281 108.01 971.281 105.567C971.281 103.137 971.654 101.276 972.401 99.983C973.147 98.6901 974.227 98.0436 975.64 98.0436ZM972.7 105.567C972.7 107.3 972.847 108.657 973.14 109.637L977.58 100.196C977.114 99.5283 976.467 99.1944 975.64 99.1944C974.72 99.1944 974 99.7201 973.48 100.771C972.96 101.809 972.7 103.407 972.7 105.567ZM975.64 111.939C976.574 111.939 977.3 111.42 977.82 110.383C978.34 109.332 978.6 107.726 978.6 105.567C978.6 103.734 978.433 102.313 978.1 101.304L973.66 110.831C974.14 111.569 974.8 111.939 975.64 111.939Z" fill="url(#paint92_linear_175_1867)"/>
<path d="M975.64 122.4C977.067 122.4 978.147 123.046 978.88 124.339C979.627 125.618 980 127.479 980 129.923C980 132.367 979.627 134.235 978.88 135.528C978.147 136.821 977.067 137.467 975.64 137.467C974.227 137.467 973.147 136.821 972.401 135.528C971.654 134.235 971.281 132.367 971.281 129.923C971.281 127.493 971.654 125.632 972.401 124.339C973.147 123.046 974.227 122.4 975.64 122.4ZM972.7 129.923C972.7 131.656 972.847 133.013 973.14 133.993L977.58 124.552C977.114 123.885 976.467 123.551 975.64 123.551C974.72 123.551 974 124.076 973.48 125.128C972.96 126.165 972.7 127.763 972.7 129.923ZM975.64 136.295C976.574 136.295 977.3 135.777 977.82 134.739C978.34 133.688 978.6 132.083 978.6 129.923C978.6 128.09 978.433 126.669 978.1 125.661L973.66 135.187C974.14 135.926 974.8 136.295 975.64 136.295Z" fill="url(#paint93_linear_175_1867)"/>
</g>
</g>
<defs>
<filter id="filter0_f_175_1867" x="-558.19" y="-705.19" width="2141.38" height="1548.4" filterUnits="userSpaceOnUse" color-interpolation-filters="sRGB">
<feFlood flood-opacity="0" result="BackgroundImageFix"/>
<feBlend mode="normal" in="SourceGraphic" in2="BackgroundImageFix" result="shape"/>
<feGaussianBlur stdDeviation="200.095" result="effect1_foregroundBlur_175_1867"/>
</filter>
<linearGradient id="paint0_linear_175_1867" x1="52.5" y1="321.197" x2="52.5" y2="653.937" gradientUnits="userSpaceOnUse">
<stop stop-color="#F7DD43"/>
<stop offset="1" stop-color="#F7DD43" stop-opacity="0"/>
</linearGradient>
<linearGradient id="paint1_linear_175_1867" x1="52.5" y1="321.197" x2="52.5" y2="653.937" gradientUnits="userSpaceOnUse">
<stop stop-color="#F7DD43"/>
<stop offset="1" stop-color="#F7DD43" stop-opacity="0"/>
</linearGradient>
<linearGradient id="paint2_linear_175_1867" x1="52.5" y1="321.197" x2="52.5" y2="653.937" gradientUnits="userSpaceOnUse">
<stop stop-color="#F7DD43"/>
<stop offset="1" stop-color="#F7DD43" stop-opacity="0"/>
</linearGradient>
<linearGradient id="paint3_linear_175_1867" x1="52.5" y1="321.197" x2="52.5" y2="653.937" gradientUnits="userSpaceOnUse">
<stop stop-color="#F7DD43"/>
<stop offset="1" stop-color="#F7DD43" stop-opacity="0"/>
</linearGradient>
<linearGradient id="paint4_linear_175_1867" x1="52.5" y1="321.197" x2="52.5" y2="653.937" gradientUnits="userSpaceOnUse">
<stop stop-color="#F7DD43"/>
<stop offset="1" stop-color="#F7DD43" stop-opacity="0"/>
</linearGradient>
<linearGradient id="paint5_linear_175_1867" x1="52.5" y1="321.197" x2="52.5" y2="653.937" gradientUnits="userSpaceOnUse">
<stop stop-color="#F7DD43"/>
<stop offset="1" stop-color="#F7DD43" stop-opacity="0"/>
</linearGradient>
<linearGradient id="paint6_linear_175_1867" x1="52.5" y1="321.197" x2="52.5" y2="653.937" gradientUnits="userSpaceOnUse">
<stop stop-color="#F7DD43"/>
<stop offset="1" stop-color="#F7DD43" stop-opacity="0"/>
</linearGradient>
<linearGradient id="paint7_linear_175_1867" x1="52.5" y1="321.197" x2="52.5" y2="653.937" gradientUnits="userSpaceOnUse">
<stop stop-color="#F7DD43"/>
<stop offset="1" stop-color="#F7DD43" stop-opacity="0"/>
</linearGradient>
<linearGradient id="paint8_linear_175_1867" x1="52.5" y1="321.197" x2="52.5" y2="653.937" gradientUnits="userSpaceOnUse">
<stop stop-color="#F7DD43"/>
<stop offset="1" stop-color="#F7DD43" stop-opacity="0"/>
</linearGradient>
<linearGradient id="paint9_linear_175_1867" x1="52.5" y1="321.197" x2="52.5" y2="653.937" gradientUnits="userSpaceOnUse">
<stop stop-color="#F7DD43"/>
<stop offset="1" stop-color="#F7DD43" stop-opacity="0"/>
</linearGradient>
<linearGradient id="paint10_linear_175_1867" x1="52.5" y1="321.197" x2="52.5" y2="653.937" gradientUnits="userSpaceOnUse">
<stop stop-color="#F7DD43"/>
<stop offset="1" stop-color="#F7DD43" stop-opacity="0"/>
</linearGradient>
<linearGradient id="paint11_linear_175_1867" x1="52.5" y1="321.197" x2="52.5" y2="653.937" gradientUnits="userSpaceOnUse">
<stop stop-color="#F7DD43"/>
<stop offset="1" stop-color="#F7DD43" stop-opacity="0"/>
</linearGradient>
<linearGradient id="paint12_linear_175_1867" x1="52.5" y1="321.197" x2="52.5" y2="653.937" gradientUnits="userSpaceOnUse">
<stop stop-color="#F7DD43"/>
<stop offset="1" stop-color="#F7DD43" stop-opacity="0"/>
</linearGradient>
<linearGradient id="paint13_linear_175_1867" x1="52.5" y1="321.197" x2="52.5" y2="653.937" gradientUnits="userSpaceOnUse">
<stop stop-color="#F7DD43"/>
<stop offset="1" stop-color="#F7DD43" stop-opacity="0"/>
</linearGradient>
<linearGradient id="paint14_linear_175_1867" x1="52.5" y1="321.197" x2="52.5" y2="653.937" gradientUnits="userSpaceOnUse">
<stop stop-color="#F7DD43"/>
<stop offset="1" stop-color="#F7DD43" stop-opacity="0"/>
</linearGradient>
<linearGradient id="paint15_linear_175_1867" x1="52.5" y1="321.197" x2="52.5" y2="653.937" gradientUnits="userSpaceOnUse">
<stop stop-color="#F7DD43"/>
<stop offset="1" stop-color="#F7DD43" stop-opacity="0"/>
</linearGradient>
<linearGradient id="paint16_linear_175_1867" x1="52.5" y1="321.197" x2="52.5" y2="653.937" gradientUnits="userSpaceOnUse">
<stop stop-color="#F7DD43"/>
<stop offset="1" stop-color="#F7DD43" stop-opacity="0"/>
</linearGradient>
<linearGradient id="paint17_linear_175_1867" x1="52.5" y1="321.197" x2="52.5" y2="653.937" gradientUnits="userSpaceOnUse">
<stop stop-color="#F7DD43"/>
<stop offset="1" stop-color="#F7DD43" stop-opacity="0"/>
</linearGradient>
<linearGradient id="paint18_linear_175_1867" x1="52.5" y1="321.197" x2="52.5" y2="653.937" gradientUnits="userSpaceOnUse">
<stop stop-color="#F7DD43"/>
<stop offset="1" stop-color="#F7DD43" stop-opacity="0"/>
</linearGradient>
<linearGradient id="paint19_linear_175_1867" x1="52.5" y1="321.197" x2="52.5" y2="653.937" gradientUnits="userSpaceOnUse">
<stop stop-color="#F7DD43"/>
<stop offset="1" stop-color="#F7DD43" stop-opacity="0"/>
</linearGradient>
<linearGradient id="paint20_linear_175_1867" x1="52.5" y1="321.197" x2="52.5" y2="653.937" gradientUnits="userSpaceOnUse">
<stop stop-color="#F7DD43"/>
<stop offset="1" stop-color="#F7DD43" stop-opacity="0"/>
</linearGradient>
<linearGradient id="paint21_linear_175_1867" x1="52.5" y1="321.197" x2="52.5" y2="653.937" gradientUnits="userSpaceOnUse">
<stop stop-color="#F7DD43"/>
<stop offset="1" stop-color="#F7DD43" stop-opacity="0"/>
</linearGradient>
<linearGradient id="paint22_linear_175_1867" x1="52.5" y1="321.197" x2="52.5" y2="653.937" gradientUnits="userSpaceOnUse">
<stop stop-color="#F7DD43"/>
<stop offset="1" stop-color="#F7DD43" stop-opacity="0"/>
</linearGradient>
<linearGradient id="paint23_linear_175_1867" x1="52.5" y1="321.197" x2="52.5" y2="653.937" gradientUnits="userSpaceOnUse">
<stop stop-color="#F7DD43"/>
<stop offset="1" stop-color="#F7DD43" stop-opacity="0"/>
</linearGradient>
<linearGradient id="paint24_linear_175_1867" x1="52.5" y1="321.197" x2="52.5" y2="653.937" gradientUnits="userSpaceOnUse">
<stop stop-color="#F7DD43"/>
<stop offset="1" stop-color="#F7DD43" stop-opacity="0"/>
</linearGradient>
<linearGradient id="paint25_linear_175_1867" x1="52.5" y1="321.197" x2="52.5" y2="653.937" gradientUnits="userSpaceOnUse">
<stop stop-color="#F7DD43"/>
<stop offset="1" stop-color="#F7DD43" stop-opacity="0"/>
</linearGradient>
<linearGradient id="paint26_linear_175_1867" x1="52.5" y1="321.197" x2="52.5" y2="653.937" gradientUnits="userSpaceOnUse">
<stop stop-color="#F7DD43"/>
<stop offset="1" stop-color="#F7DD43" stop-opacity="0"/>
</linearGradient>
<linearGradient id="paint27_linear_175_1867" x1="52.5" y1="321.197" x2="52.5" y2="653.937" gradientUnits="userSpaceOnUse">
<stop stop-color="#F7DD43"/>
<stop offset="1" stop-color="#F7DD43" stop-opacity="0"/>
</linearGradient>
<linearGradient id="paint28_linear_175_1867" x1="52.5" y1="321.197" x2="52.5" y2="653.937" gradientUnits="userSpaceOnUse">
<stop stop-color="#F7DD43"/>
<stop offset="1" stop-color="#F7DD43" stop-opacity="0"/>
</linearGradient>
<linearGradient id="paint29_linear_175_1867" x1="52.5" y1="321.197" x2="52.5" y2="653.937" gradientUnits="userSpaceOnUse">
<stop stop-color="#F7DD43"/>
<stop offset="1" stop-color="#F7DD43" stop-opacity="0"/>
</linearGradient>
<linearGradient id="paint30_linear_175_1867" x1="52.5" y1="321.197" x2="52.5" y2="653.937" gradientUnits="userSpaceOnUse">
<stop stop-color="#F7DD43"/>
<stop offset="1" stop-color="#F7DD43" stop-opacity="0"/>
</linearGradient>
<linearGradient id="paint31_linear_175_1867" x1="52.5" y1="321.197" x2="52.5" y2="653.937" gradientUnits="userSpaceOnUse">
<stop stop-color="#F7DD43"/>
<stop offset="1" stop-color="#F7DD43" stop-opacity="0"/>
</linearGradient>
<linearGradient id="paint32_linear_175_1867" x1="52.5" y1="321.197" x2="52.5" y2="653.937" gradientUnits="userSpaceOnUse">
<stop stop-color="#F7DD43"/>
<stop offset="1" stop-color="#F7DD43" stop-opacity="0"/>
</linearGradient>
<linearGradient id="paint33_linear_175_1867" x1="52.5" y1="321.197" x2="52.5" y2="653.937" gradientUnits="userSpaceOnUse">
<stop stop-color="#F7DD43"/>
<stop offset="1" stop-color="#F7DD43" stop-opacity="0"/>
</linearGradient>
<linearGradient id="paint34_linear_175_1867" x1="52.5" y1="321.197" x2="52.5" y2="653.937" gradientUnits="userSpaceOnUse">
<stop stop-color="#F7DD43"/>
<stop offset="1" stop-color="#F7DD43" stop-opacity="0"/>
</linearGradient>
<linearGradient id="paint35_linear_175_1867" x1="52.5" y1="321.197" x2="52.5" y2="653.937" gradientUnits="userSpaceOnUse">
<stop stop-color="#F7DD43"/>
<stop offset="1" stop-color="#F7DD43" stop-opacity="0"/>
</linearGradient>
<linearGradient id="paint36_linear_175_1867" x1="52.5" y1="321.197" x2="52.5" y2="653.937" gradientUnits="userSpaceOnUse">
<stop stop-color="#F7DD43"/>
<stop offset="1" stop-color="#F7DD43" stop-opacity="0"/>
</linearGradient>
<linearGradient id="paint37_linear_175_1867" x1="52.5" y1="321.197" x2="52.5" y2="653.937" gradientUnits="userSpaceOnUse">
<stop stop-color="#F7DD43"/>
<stop offset="1" stop-color="#F7DD43" stop-opacity="0"/>
</linearGradient>
<linearGradient id="paint38_linear_175_1867" x1="52.5" y1="321.197" x2="52.5" y2="653.937" gradientUnits="userSpaceOnUse">
<stop stop-color="#F7DD43"/>
<stop offset="1" stop-color="#F7DD43" stop-opacity="0"/>
</linearGradient>
<linearGradient id="paint39_linear_175_1867" x1="52.5" y1="321.197" x2="52.5" y2="653.937" gradientUnits="userSpaceOnUse">
<stop stop-color="#F7DD43"/>
<stop offset="1" stop-color="#F7DD43" stop-opacity="0"/>
</linearGradient>
<linearGradient id="paint40_linear_175_1867" x1="52.5" y1="321.197" x2="52.5" y2="653.937" gradientUnits="userSpaceOnUse">
<stop stop-color="#F7DD43"/>
<stop offset="1" stop-color="#F7DD43" stop-opacity="0"/>
</linearGradient>
<linearGradient id="paint41_linear_175_1867" x1="52.5" y1="321.197" x2="52.5" y2="653.937" gradientUnits="userSpaceOnUse">
<stop stop-color="#F7DD43"/>
<stop offset="1" stop-color="#F7DD43" stop-opacity="0"/>
</linearGradient>
<linearGradient id="paint42_linear_175_1867" x1="52.5" y1="321.197" x2="52.5" y2="653.937" gradientUnits="userSpaceOnUse">
<stop stop-color="#F7DD43"/>
<stop offset="1" stop-color="#F7DD43" stop-opacity="0"/>
</linearGradient>
<linearGradient id="paint43_linear_175_1867" x1="52.5" y1="321.197" x2="52.5" y2="653.937" gradientUnits="userSpaceOnUse">
<stop stop-color="#F7DD43"/>
<stop offset="1" stop-color="#F7DD43" stop-opacity="0"/>
</linearGradient>
<linearGradient id="paint44_linear_175_1867" x1="52.5" y1="321.197" x2="52.5" y2="653.937" gradientUnits="userSpaceOnUse">
<stop stop-color="#F7DD43"/>
<stop offset="1" stop-color="#F7DD43" stop-opacity="0"/>
</linearGradient>
<linearGradient id="paint45_linear_175_1867" x1="52.5" y1="321.197" x2="52.5" y2="653.937" gradientUnits="userSpaceOnUse">
<stop stop-color="#F7DD43"/>
<stop offset="1" stop-color="#F7DD43" stop-opacity="0"/>
</linearGradient>
<linearGradient id="paint46_linear_175_1867" x1="52.5" y1="321.197" x2="52.5" y2="653.937" gradientUnits="userSpaceOnUse">
<stop stop-color="#F7DD43"/>
<stop offset="1" stop-color="#F7DD43" stop-opacity="0"/>
</linearGradient>
<linearGradient id="paint47_linear_175_1867" x1="938.5" y1="0.618408" x2="938.5" y2="319.934" gradientUnits="userSpaceOnUse">
<stop stop-color="#F7DD43"/>
<stop offset="1" stop-color="#F7DD43" stop-opacity="0"/>
</linearGradient>
<linearGradient id="paint48_linear_175_1867" x1="938.5" y1="0.618408" x2="938.5" y2="319.934" gradientUnits="userSpaceOnUse">
<stop stop-color="#F7DD43"/>
<stop offset="1" stop-color="#F7DD43" stop-opacity="0"/>
</linearGradient>
<linearGradient id="paint49_linear_175_1867" x1="938.5" y1="0.618408" x2="938.5" y2="319.934" gradientUnits="userSpaceOnUse">
<stop stop-color="#F7DD43"/>
<stop offset="1" stop-color="#F7DD43" stop-opacity="0"/>
</linearGradient>
<linearGradient id="paint50_linear_175_1867" x1="938.5" y1="0.618408" x2="938.5" y2="319.934" gradientUnits="userSpaceOnUse">
<stop stop-color="#F7DD43"/>
<stop offset="1" stop-color="#F7DD43" stop-opacity="0"/>
</linearGradient>
<linearGradient id="paint51_linear_175_1867" x1="938.5" y1="0.618408" x2="938.5" y2="319.934" gradientUnits="userSpaceOnUse">
<stop stop-color="#F7DD43"/>
<stop offset="1" stop-color="#F7DD43" stop-opacity="0"/>
</linearGradient>
<linearGradient id="paint52_linear_175_1867" x1="938.5" y1="0.618408" x2="938.5" y2="319.934" gradientUnits="userSpaceOnUse">
<stop stop-color="#F7DD43"/>
<stop offset="1" stop-color="#F7DD43" stop-opacity="0"/>
</linearGradient>
<linearGradient id="paint53_linear_175_1867" x1="938.5" y1="0.618408" x2="938.5" y2="319.934" gradientUnits="userSpaceOnUse">
<stop stop-color="#F7DD43"/>
<stop offset="1" stop-color="#F7DD43" stop-opacity="0"/>
</linearGradient>
<linearGradient id="paint54_linear_175_1867" x1="938.5" y1="0.618408" x2="938.5" y2="319.934" gradientUnits="userSpaceOnUse">
<stop stop-color="#F7DD43"/>
<stop offset="1" stop-color="#F7DD43" stop-opacity="0"/>
</linearGradient>
<linearGradient id="paint55_linear_175_1867" x1="938.5" y1="0.618408" x2="938.5" y2="319.934" gradientUnits="userSpaceOnUse">
<stop stop-color="#F7DD43"/>
<stop offset="1" stop-color="#F7DD43" stop-opacity="0"/>
</linearGradient>
<linearGradient id="paint56_linear_175_1867" x1="938.5" y1="0.618408" x2="938.5" y2="319.934" gradientUnits="userSpaceOnUse">
<stop stop-color="#F7DD43"/>
<stop offset="1" stop-color="#F7DD43" stop-opacity="0"/>
</linearGradient>
<linearGradient id="paint57_linear_175_1867" x1="938.5" y1="0.618408" x2="938.5" y2="319.934" gradientUnits="userSpaceOnUse">
<stop stop-color="#F7DD43"/>
<stop offset="1" stop-color="#F7DD43" stop-opacity="0"/>
</linearGradient>
<linearGradient id="paint58_linear_175_1867" x1="938.5" y1="0.618408" x2="938.5" y2="319.934" gradientUnits="userSpaceOnUse">
<stop stop-color="#F7DD43"/>
<stop offset="1" stop-color="#F7DD43" stop-opacity="0"/>
</linearGradient>
<linearGradient id="paint59_linear_175_1867" x1="938.5" y1="0.618408" x2="938.5" y2="319.934" gradientUnits="userSpaceOnUse">
<stop stop-color="#F7DD43"/>
<stop offset="1" stop-color="#F7DD43" stop-opacity="0"/>
</linearGradient>
<linearGradient id="paint60_linear_175_1867" x1="938.5" y1="0.618408" x2="938.5" y2="319.934" gradientUnits="userSpaceOnUse">
<stop stop-color="#F7DD43"/>
<stop offset="1" stop-color="#F7DD43" stop-opacity="0"/>
</linearGradient>
<linearGradient id="paint61_linear_175_1867" x1="938.5" y1="0.618408" x2="938.5" y2="319.934" gradientUnits="userSpaceOnUse">
<stop stop-color="#F7DD43"/>
<stop offset="1" stop-color="#F7DD43" stop-opacity="0"/>
</linearGradient>
<linearGradient id="paint62_linear_175_1867" x1="938.5" y1="0.618408" x2="938.5" y2="319.934" gradientUnits="userSpaceOnUse">
<stop stop-color="#F7DD43"/>
<stop offset="1" stop-color="#F7DD43" stop-opacity="0"/>
</linearGradient>
<linearGradient id="paint63_linear_175_1867" x1="938.5" y1="0.618408" x2="938.5" y2="319.934" gradientUnits="userSpaceOnUse">
<stop stop-color="#F7DD43"/>
<stop offset="1" stop-color="#F7DD43" stop-opacity="0"/>
</linearGradient>
<linearGradient id="paint64_linear_175_1867" x1="938.5" y1="0.618408" x2="938.5" y2="319.934" gradientUnits="userSpaceOnUse">
<stop stop-color="#F7DD43"/>
<stop offset="1" stop-color="#F7DD43" stop-opacity="0"/>
</linearGradient>
<linearGradient id="paint65_linear_175_1867" x1="938.5" y1="0.618408" x2="938.5" y2="319.934" gradientUnits="userSpaceOnUse">
<stop stop-color="#F7DD43"/>
<stop offset="1" stop-color="#F7DD43" stop-opacity="0"/>
</linearGradient>
<linearGradient id="paint66_linear_175_1867" x1="938.5" y1="0.618408" x2="938.5" y2="319.934" gradientUnits="userSpaceOnUse">
<stop stop-color="#F7DD43"/>
<stop offset="1" stop-color="#F7DD43" stop-opacity="0"/>
</linearGradient>
<linearGradient id="paint67_linear_175_1867" x1="938.5" y1="0.618408" x2="938.5" y2="319.934" gradientUnits="userSpaceOnUse">
<stop stop-color="#F7DD43"/>
<stop offset="1" stop-color="#F7DD43" stop-opacity="0"/>
</linearGradient>
<linearGradient id="paint68_linear_175_1867" x1="938.5" y1="0.618408" x2="938.5" y2="319.934" gradientUnits="userSpaceOnUse">
<stop stop-color="#F7DD43"/>
<stop offset="1" stop-color="#F7DD43" stop-opacity="0"/>
</linearGradient>
<linearGradient id="paint69_linear_175_1867" x1="938.5" y1="0.618408" x2="938.5" y2="319.934" gradientUnits="userSpaceOnUse">
<stop stop-color="#F7DD43"/>
<stop offset="1" stop-color="#F7DD43" stop-opacity="0"/>
</linearGradient>
<linearGradient id="paint70_linear_175_1867" x1="938.5" y1="0.618408" x2="938.5" y2="319.934" gradientUnits="userSpaceOnUse">
<stop stop-color="#F7DD43"/>
<stop offset="1" stop-color="#F7DD43" stop-opacity="0"/>
</linearGradient>
<linearGradient id="paint71_linear_175_1867" x1="938.5" y1="0.618408" x2="938.5" y2="319.934" gradientUnits="userSpaceOnUse">
<stop stop-color="#F7DD43"/>
<stop offset="1" stop-color="#F7DD43" stop-opacity="0"/>
</linearGradient>
<linearGradient id="paint72_linear_175_1867" x1="938.5" y1="0.618408" x2="938.5" y2="319.934" gradientUnits="userSpaceOnUse">
<stop stop-color="#F7DD43"/>
<stop offset="1" stop-color="#F7DD43" stop-opacity="0"/>
</linearGradient>
<linearGradient id="paint73_linear_175_1867" x1="938.5" y1="0.618408" x2="938.5" y2="319.934" gradientUnits="userSpaceOnUse">
<stop stop-color="#F7DD43"/>
<stop offset="1" stop-color="#F7DD43" stop-opacity="0"/>
</linearGradient>
<linearGradient id="paint74_linear_175_1867" x1="938.5" y1="0.618408" x2="938.5" y2="319.934" gradientUnits="userSpaceOnUse">
<stop stop-color="#F7DD43"/>
<stop offset="1" stop-color="#F7DD43" stop-opacity="0"/>
</linearGradient>
<linearGradient id="paint75_linear_175_1867" x1="938.5" y1="0.618408" x2="938.5" y2="319.934" gradientUnits="userSpaceOnUse">
<stop stop-color="#F7DD43"/>
<stop offset="1" stop-color="#F7DD43" stop-opacity="0"/>
</linearGradient>
<linearGradient id="paint76_linear_175_1867" x1="938.5" y1="0.618408" x2="938.5" y2="319.934" gradientUnits="userSpaceOnUse">
<stop stop-color="#F7DD43"/>
<stop offset="1" stop-color="#F7DD43" stop-opacity="0"/>
</linearGradient>
<linearGradient id="paint77_linear_175_1867" x1="938.5" y1="0.618408" x2="938.5" y2="319.934" gradientUnits="userSpaceOnUse">
<stop stop-color="#F7DD43"/>
<stop offset="1" stop-color="#F7DD43" stop-opacity="0"/>
</linearGradient>
<linearGradient id="paint78_linear_175_1867" x1="938.5" y1="0.618408" x2="938.5" y2="319.934" gradientUnits="userSpaceOnUse">
<stop stop-color="#F7DD43"/>
<stop offset="1" stop-color="#F7DD43" stop-opacity="0"/>
</linearGradient>
<linearGradient id="paint79_linear_175_1867" x1="938.5" y1="0.618408" x2="938.5" y2="319.934" gradientUnits="userSpaceOnUse">
<stop stop-color="#F7DD43"/>
<stop offset="1" stop-color="#F7DD43" stop-opacity="0"/>
</linearGradient>
<linearGradient id="paint80_linear_175_1867" x1="938.5" y1="0.618408" x2="938.5" y2="319.934" gradientUnits="userSpaceOnUse">
<stop stop-color="#F7DD43"/>
<stop offset="1" stop-color="#F7DD43" stop-opacity="0"/>
</linearGradient>
<linearGradient id="paint81_linear_175_1867" x1="938.5" y1="0.618408" x2="938.5" y2="319.934" gradientUnits="userSpaceOnUse">
<stop stop-color="#F7DD43"/>
<stop offset="1" stop-color="#F7DD43" stop-opacity="0"/>
</linearGradient>
<linearGradient id="paint82_linear_175_1867" x1="938.5" y1="0.618408" x2="938.5" y2="319.934" gradientUnits="userSpaceOnUse">
<stop stop-color="#F7DD43"/>
<stop offset="1" stop-color="#F7DD43" stop-opacity="0"/>
</linearGradient>
<linearGradient id="paint83_linear_175_1867" x1="938.5" y1="0.618408" x2="938.5" y2="319.934" gradientUnits="userSpaceOnUse">
<stop stop-color="#F7DD43"/>
<stop offset="1" stop-color="#F7DD43" stop-opacity="0"/>
</linearGradient>
<linearGradient id="paint84_linear_175_1867" x1="938.5" y1="0.618408" x2="938.5" y2="319.934" gradientUnits="userSpaceOnUse">
<stop stop-color="#F7DD43"/>
<stop offset="1" stop-color="#F7DD43" stop-opacity="0"/>
</linearGradient>
<linearGradient id="paint85_linear_175_1867" x1="938.5" y1="0.618408" x2="938.5" y2="319.934" gradientUnits="userSpaceOnUse">
<stop stop-color="#F7DD43"/>
<stop offset="1" stop-color="#F7DD43" stop-opacity="0"/>
</linearGradient>
<linearGradient id="paint86_linear_175_1867" x1="938.5" y1="0.618408" x2="938.5" y2="319.934" gradientUnits="userSpaceOnUse">
<stop stop-color="#F7DD43"/>
<stop offset="1" stop-color="#F7DD43" stop-opacity="0"/>
</linearGradient>
<linearGradient id="paint87_linear_175_1867" x1="938.5" y1="0.618408" x2="938.5" y2="319.934" gradientUnits="userSpaceOnUse">
<stop stop-color="#F7DD43"/>
<stop offset="1" stop-color="#F7DD43" stop-opacity="0"/>
</linearGradient>
<linearGradient id="paint88_linear_175_1867" x1="938.5" y1="0.618408" x2="938.5" y2="319.934" gradientUnits="userSpaceOnUse">
<stop stop-color="#F7DD43"/>
<stop offset="1" stop-color="#F7DD43" stop-opacity="0"/>
</linearGradient>
<linearGradient id="paint89_linear_175_1867" x1="938.5" y1="0.618408" x2="938.5" y2="319.934" gradientUnits="userSpaceOnUse">
<stop stop-color="#F7DD43"/>
<stop offset="1" stop-color="#F7DD43" stop-opacity="0"/>
</linearGradient>
<linearGradient id="paint90_linear_175_1867" x1="938.5" y1="0.618408" x2="938.5" y2="319.934" gradientUnits="userSpaceOnUse">
<stop stop-color="#F7DD43"/>
<stop offset="1" stop-color="#F7DD43" stop-opacity="0"/>
</linearGradient>
<linearGradient id="paint91_linear_175_1867" x1="938.5" y1="0.618408" x2="938.5" y2="319.934" gradientUnits="userSpaceOnUse">
<stop stop-color="#F7DD43"/>
<stop offset="1" stop-color="#F7DD43" stop-opacity="0"/>
</linearGradient>
<linearGradient id="paint92_linear_175_1867" x1="938.5" y1="0.618408" x2="938.5" y2="319.934" gradientUnits="userSpaceOnUse">
<stop stop-color="#F7DD43"/>
<stop offset="1" stop-color="#F7DD43" stop-opacity="0"/>
</linearGradient>
<linearGradient id="paint93_linear_175_1867" x1="938.5" y1="0.618408" x2="938.5" y2="319.934" gradientUnits="userSpaceOnUse">
<stop stop-color="#F7DD43"/>
<stop offset="1" stop-color="#F7DD43" stop-opacity="0"/>
</linearGradient>
<clipPath id="clip0_175_1867">
<rect width="1024" height="753" fill="white"/>
</clipPath>
</defs>
</svg>
